<?xml version="1.0" encoding="UTF-8" standalone="no"?><!DOCTYPE svg PUBLIC "-//W3C//DTD SVG 1.1//EN" "http://www.w3.org/Graphics/SVG/1.1/DTD/svg11.dtd"><svg width="100%" height="100%" viewBox="0 0 2483 3512" version="1.1" xmlns="http://www.w3.org/2000/svg" xmlns:xlink="http://www.w3.org/1999/xlink" xml:space="preserve" xmlns:serif="http://www.serif.com/" style="fill-rule:evenodd;clip-rule:evenodd;stroke-linecap:round;stroke-linejoin:round;"><g><clipPath id="_clip1"><rect x="0" y="0" width="2484" height="3513"/></clipPath><g clip-path="url(#_clip1)"><rect x="0" y="3506.07" width="2484.38" height="3.105" style="fill:#e5e7eb;"/><rect x="2481.27" y="0" width="3.105" height="3509.18" style="fill:#e5e7eb;"/><rect x="0" y="0" width="3.105" height="3509.18" style="fill:#e5e7eb;"/><rect x="3.105" y="0" width="869.531" height="3506.07" style="fill:#3b82f6;"/><rect x="102.48" y="534.141" width="670.781" height="6.211" style="fill:#fff;"/><path d="M65.627,622.028c0,-0.851 0.163,-1.67 0.489,-2.456c0.325,-0.786 0.789,-1.48 1.391,-2.082c0.602,-0.602 1.296,-1.065 2.082,-1.391c0.786,-0.326 1.604,-0.488 2.455,-0.488l38.503,-0c0.851,-0 1.67,0.162 2.456,0.488c0.786,0.326 1.48,0.789 2.082,1.391c0.602,0.602 1.065,1.296 1.391,2.082c0.326,0.786 0.489,1.605 0.489,2.456l-0,38.503c-0,0.851 -0.163,1.669 -0.489,2.455c-0.326,0.787 -0.789,1.481 -1.391,2.082c-0.602,0.602 -1.296,1.066 -2.082,1.391c-0.786,0.326 -1.605,0.489 -2.456,0.489l-38.503,-0c-0.851,-0 -1.669,-0.163 -2.455,-0.489c-0.786,-0.325 -1.48,-0.789 -2.082,-1.391c-0.602,-0.601 -1.066,-1.295 -1.391,-2.082c-0.326,-0.786 -0.489,-1.604 -0.489,-2.455l0,-38.503Z" style="fill:none;fill-rule:nonzero;stroke:#fff;stroke-width:6.42px;"/><path d="M78.462,638.071l-0,16.042" style="fill:none;fill-rule:nonzero;stroke:#fff;stroke-width:6.42px;"/><path d="M78.462,628.445l-0,0.032" style="fill:none;fill-rule:nonzero;stroke:#fff;stroke-width:6.42px;"/><path d="M91.296,654.113l-0,-16.042" style="fill:none;fill-rule:nonzero;stroke:#fff;stroke-width:6.42px;"/><path d="M104.13,654.113l0,-9.625c0,-0.851 -0.163,-1.67 -0.488,-2.456c-0.326,-0.786 -0.79,-1.48 -1.391,-2.082c-0.602,-0.602 -1.296,-1.065 -2.082,-1.391c-0.786,-0.326 -1.605,-0.488 -2.456,-0.488c-0.851,-0 -1.669,0.162 -2.456,0.488c-0.786,0.326 -1.48,0.789 -2.082,1.391c-0.601,0.602 -1.065,1.296 -1.391,2.082c-0.325,0.786 -0.488,1.605 -0.488,2.456" style="fill:none;fill-rule:nonzero;stroke:#fff;stroke-width:6.42px;"/><path d="M66.768,770.156c-0.001,1.53 0.148,3.045 0.446,4.545c0.298,1.5 0.739,2.957 1.324,4.371c0.585,1.413 1.302,2.756 2.152,4.028c0.85,1.272 1.815,2.449 2.897,3.531c1.081,1.081 2.258,2.047 3.529,2.897c1.272,0.85 2.614,1.568 4.028,2.154c1.413,0.585 2.87,1.027 4.37,1.325c1.5,0.299 3.015,0.448 4.545,0.448c1.529,0 3.044,-0.149 4.544,-0.448c1.501,-0.298 2.957,-0.74 4.371,-1.325c1.413,-0.586 2.755,-1.304 4.027,-2.154c1.272,-0.85 2.448,-1.816 3.53,-2.897c1.081,-1.082 2.047,-2.259 2.896,-3.531c0.85,-1.272 1.567,-2.615 2.152,-4.028c0.585,-1.414 1.026,-2.871 1.324,-4.371c0.298,-1.5 0.447,-3.015 0.447,-4.545c-0.001,-1.529 -0.151,-3.043 -0.449,-4.543c-0.299,-1.499 -0.741,-2.955 -1.327,-4.367c-0.585,-1.413 -1.303,-2.755 -2.152,-4.026c-0.85,-1.271 -1.816,-2.447 -2.897,-3.528c-1.081,-1.081 -2.258,-2.046 -3.529,-2.895c-1.272,-0.85 -2.614,-1.567 -4.026,-2.152c-1.413,-0.585 -2.869,-1.026 -4.369,-1.324c-1.499,-0.299 -3.013,-0.448 -4.542,-0.448c-1.529,0 -3.044,0.149 -4.543,0.448c-1.5,0.298 -2.956,0.739 -4.369,1.324c-1.412,0.585 -2.754,1.302 -4.026,2.152c-1.271,0.849 -2.447,1.814 -3.529,2.895c-1.081,1.081 -2.047,2.257 -2.896,3.528c-0.85,1.271 -1.568,2.613 -2.153,4.026c-0.586,1.412 -1.028,2.868 -1.327,4.367c-0.298,1.5 -0.448,3.014 -0.448,4.543" style="fill:none;fill-rule:nonzero;stroke:#fff;stroke-width:5.18px;"/><path d="M68.32,762.392l43.477,0" style="fill:none;fill-rule:nonzero;stroke:#fff;stroke-width:5.18px;"/><path d="M68.32,777.92l43.477,-0" style="fill:none;fill-rule:nonzero;stroke:#fff;stroke-width:5.18px;"/><path d="M88.765,746.865c-2.18,3.493 -3.837,7.219 -4.971,11.177c-1.134,3.959 -1.7,7.997 -1.7,12.114c-0,4.118 0.566,8.156 1.7,12.114c1.134,3.958 2.791,7.684 4.971,11.177" style="fill:none;fill-rule:nonzero;stroke:#fff;stroke-width:5.18px;"/><path d="M91.353,746.865c2.179,3.493 3.836,7.219 4.97,11.177c1.134,3.959 1.701,7.997 1.701,12.114c-0,4.118 -0.567,8.156 -1.701,12.114c-1.134,3.958 -2.791,7.684 -4.97,11.177" style="fill:none;fill-rule:nonzero;stroke:#fff;stroke-width:5.18px;"/><rect x="102.48" y="1565.16" width="670.781" height="6.211" style="fill:#fff;"/><rect x="102.48" y="1708.01" width="43.477" height="15.527" style="fill:#2563eb;"/><rect x="158.379" y="1708.01" width="43.477" height="15.527" style="fill:#2563eb;"/><rect x="214.277" y="1708.01" width="43.477" height="15.527" style="fill:#2563eb;"/><rect x="270.176" y="1708.01" width="43.477" height="15.527" style="fill:#2563eb;"/><rect x="326.074" y="1708.01" width="43.477" height="15.527" style="fill:#2563eb;"/><rect x="102.48" y="1835.33" width="43.477" height="15.527" style="fill:#2563eb;"/><rect x="158.379" y="1835.33" width="43.477" height="15.527" style="fill:#2563eb;"/><rect x="214.277" y="1835.33" width="43.477" height="15.527" style="fill:#2563eb;"/><rect x="270.176" y="1835.33" width="43.477" height="15.527" style="fill:#2563eb;"/><rect x="326.074" y="1835.33" width="43.477" height="15.527" style="fill:#2563eb;"/><rect x="102.48" y="1962.66" width="43.477" height="15.527" style="fill:#2563eb;"/><rect x="158.379" y="1962.66" width="43.477" height="15.527" style="fill:#2563eb;"/><rect x="214.277" y="1962.66" width="43.477" height="15.527" style="fill:#2563eb;"/><rect x="270.176" y="1962.66" width="43.477" height="15.527" style="fill:#2563eb;"/><rect x="326.074" y="1962.66" width="43.477" height="15.527" style="fill:#fff;"/><rect x="102.48" y="2089.98" width="43.477" height="15.527" style="fill:#2563eb;"/><rect x="158.379" y="2089.98" width="43.477" height="15.527" style="fill:#2563eb;"/><rect x="214.277" y="2089.98" width="43.477" height="15.527" style="fill:#2563eb;"/><rect x="270.176" y="2089.98" width="43.477" height="15.527" style="fill:#2563eb;"/><rect x="326.074" y="2089.98" width="43.477" height="15.527" style="fill:#fff;"/><rect x="972.012" y="534.141" width="1409.88" height="6.211"/><rect x="972.012" y="590.039" width="12.422" height="347.812" style="fill:#d4d4d4;"/><path d="M1046.54,781.025c-0,1.03 -0.197,2.02 -0.591,2.971c-0.394,0.951 -0.955,1.791 -1.683,2.519c-0.728,0.728 -1.568,1.289 -2.519,1.683c-0.951,0.394 -1.941,0.591 -2.971,0.591c-1.029,-0 -2.02,-0.197 -2.971,-0.591c-0.951,-0.394 -1.791,-0.955 -2.519,-1.683c-0.728,-0.728 -1.289,-1.568 -1.683,-2.519c-0.394,-0.951 -0.591,-1.941 -0.591,-2.971c0,-1.029 0.197,-2.02 0.591,-2.971c0.394,-0.951 0.955,-1.791 1.683,-2.519c0.728,-0.728 1.568,-1.289 2.519,-1.682c0.951,-0.394 1.942,-0.591 2.971,-0.591c1.03,-0 2.02,0.197 2.971,0.591c0.951,0.393 1.791,0.954 2.519,1.682c0.728,0.728 1.289,1.568 1.683,2.519c0.394,0.951 0.591,1.942 0.591,2.971Z" style="fill-rule:nonzero;"/><path d="M1046.54,905.244c-0,1.03 -0.197,2.02 -0.591,2.971c-0.394,0.951 -0.955,1.791 -1.683,2.519c-0.728,0.728 -1.568,1.289 -2.519,1.683c-0.951,0.394 -1.941,0.591 -2.971,0.591c-1.029,-0 -2.02,-0.197 -2.971,-0.591c-0.951,-0.394 -1.791,-0.955 -2.519,-1.683c-0.728,-0.728 -1.289,-1.568 -1.683,-2.519c-0.394,-0.951 -0.591,-1.941 -0.591,-2.971c0,-1.03 0.197,-2.02 0.591,-2.971c0.394,-0.951 0.955,-1.791 1.683,-2.519c0.728,-0.728 1.568,-1.289 2.519,-1.683c0.951,-0.394 1.942,-0.591 2.971,-0.591c1.03,0 2.02,0.197 2.971,0.591c0.951,0.394 1.791,0.955 2.519,1.683c0.728,0.728 1.289,1.568 1.683,2.519c0.394,0.951 0.591,1.941 0.591,2.971Z" style="fill-rule:nonzero;"/><rect x="972.012" y="962.695" width="12.422" height="285.703" style="fill:#d4d4d4;"/><path d="M1046.54,1153.68c-0,1.03 -0.197,2.02 -0.591,2.972c-0.394,0.951 -0.955,1.79 -1.683,2.518c-0.728,0.728 -1.568,1.289 -2.519,1.683c-0.951,0.394 -1.941,0.591 -2.971,0.591c-1.029,0 -2.02,-0.197 -2.971,-0.591c-0.951,-0.394 -1.791,-0.955 -2.519,-1.683c-0.728,-0.728 -1.289,-1.567 -1.683,-2.519c-0.394,-0.951 -0.591,-1.941 -0.591,-2.971c0,-1.029 0.197,-2.019 0.591,-2.971c0.394,-0.951 0.955,-1.79 1.683,-2.518c0.728,-0.728 1.568,-1.289 2.519,-1.683c0.951,-0.394 1.942,-0.591 2.971,-0.591c1.03,-0 2.02,0.197 2.971,0.591c0.951,0.394 1.791,0.955 2.519,1.683c0.728,0.728 1.289,1.567 1.683,2.518c0.394,0.952 0.591,1.942 0.591,2.971Z" style="fill-rule:nonzero;"/><path d="M1046.54,1215.79c-0,1.029 -0.197,2.02 -0.591,2.971c-0.394,0.951 -0.955,1.791 -1.683,2.519c-0.728,0.728 -1.568,1.288 -2.519,1.683c-0.951,0.393 -1.941,0.59 -2.971,0.591c-1.029,-0.001 -2.02,-0.198 -2.971,-0.591c-0.951,-0.395 -1.791,-0.955 -2.519,-1.683c-0.728,-0.728 -1.289,-1.568 -1.683,-2.519c-0.394,-0.951 -0.591,-1.942 -0.591,-2.971c0,-1.03 0.197,-2.02 0.591,-2.971c0.394,-0.951 0.955,-1.791 1.683,-2.519c0.728,-0.728 1.568,-1.289 2.519,-1.683c0.951,-0.394 1.942,-0.591 2.971,-0.591c1.03,0 2.02,0.197 2.971,0.591c0.951,0.394 1.791,0.955 2.519,1.683c0.728,0.728 1.289,1.568 1.683,2.519c0.394,0.951 0.591,1.941 0.591,2.971Z" style="fill-rule:nonzero;"/><rect x="972.012" y="1565.16" width="1409.88" height="6.211"/><rect x="972.012" y="1621.05" width="12.422" height="161.484" style="fill:#d4d4d4;"/><rect x="972.012" y="1807.38" width="12.422" height="161.484" style="fill:#d4d4d4;"/><rect x="972.012" y="2192.46" width="1409.88" height="6.211"/><rect x="972.012" y="2322.89" width="43.477" height="15.527" style="fill:#3b82f6;"/><rect x="1027.91" y="2322.89" width="43.477" height="15.527" style="fill:#3b82f6;"/><rect x="1083.81" y="2322.89" width="43.477" height="15.527" style="fill:#3b82f6;"/><rect x="1139.71" y="2322.89" width="43.477" height="15.527" style="fill:#3b82f6;"/><rect x="1195.61" y="2322.89" width="43.477" height="15.527" style="fill:#3b82f6;"/><rect x="1344.67" y="2322.89" width="43.477" height="15.527" style="fill:#3b82f6;"/><rect x="1400.57" y="2322.89" width="43.477" height="15.527" style="fill:#3b82f6;"/><rect x="1456.46" y="2322.89" width="43.477" height="15.527" style="fill:#3b82f6;"/><rect x="1512.36" y="2322.89" width="43.477" height="15.527" style="fill:#3b82f6;"/><rect x="1568.26" y="2322.89" width="43.477" height="15.527" style="fill:#3b82f6;"/><rect x="1717.32" y="2322.89" width="43.477" height="15.527" style="fill:#3b82f6;"/><rect x="1773.22" y="2322.89" width="43.477" height="15.527" style="fill:#3b82f6;"/><rect x="1829.12" y="2322.89" width="43.477" height="15.527" style="fill:#3b82f6;"/><rect x="1885.02" y="2322.89" width="43.477" height="15.527" style="fill:#3b82f6;"/><rect x="1940.92" y="2322.89" width="43.477" height="15.527" style="fill:#3b82f6;"/><rect x="972.012" y="2475.06" width="43.477" height="15.527" style="fill:#3b82f6;"/><rect x="1027.91" y="2475.06" width="43.477" height="15.527" style="fill:#3b82f6;"/><rect x="1083.81" y="2475.06" width="43.477" height="15.527" style="fill:#3b82f6;"/><rect x="1139.71" y="2475.06" width="43.477" height="15.527" style="fill:#3b82f6;"/><rect x="1195.61" y="2475.06" width="43.477" height="15.527" style="fill:#d4d4d4;"/><rect x="1344.67" y="2475.06" width="43.477" height="15.527" style="fill:#3b82f6;"/><rect x="1400.57" y="2475.06" width="43.477" height="15.527" style="fill:#3b82f6;"/><rect x="1456.46" y="2475.06" width="43.477" height="15.527" style="fill:#3b82f6;"/><rect x="1512.36" y="2475.06" width="43.477" height="15.527" style="fill:#d4d4d4;"/><rect x="1568.26" y="2475.06" width="43.477" height="15.527" style="fill:#d4d4d4;"/><rect x="972.012" y="2627.23" width="43.477" height="15.527" style="fill:#3b82f6;"/><rect x="1027.91" y="2627.23" width="43.477" height="15.527" style="fill:#3b82f6;"/><rect x="1083.81" y="2627.23" width="43.477" height="15.527" style="fill:#3b82f6;"/><rect x="1139.71" y="2627.23" width="43.477" height="15.527" style="fill:#d4d4d4;"/><rect x="1195.61" y="2627.23" width="43.477" height="15.527" style="fill:#d4d4d4;"/><rect x="1344.67" y="2627.23" width="43.477" height="15.527" style="fill:#3b82f6;"/><rect x="1400.57" y="2627.23" width="43.477" height="15.527" style="fill:#3b82f6;"/><rect x="1456.46" y="2627.23" width="43.477" height="15.527" style="fill:#3b82f6;"/><rect x="1512.36" y="2627.23" width="43.477" height="15.527" style="fill:#d4d4d4;"/><rect x="1568.26" y="2627.23" width="43.477" height="15.527" style="fill:#d4d4d4;"/><clipPath id="_clip2"><path d="M2484,0l-2484,0l0,3513l2484,-0l-0,-3513Zm-1065.11,2824.42l-29.7,0l0,8.075l29.7,-0l-0,-8.075Z"/></clipPath><g clip-path="url(#_clip2)"><rect x="972.012" y="2825.98" width="775.251" height="3.105"/></g><text x="102.48px" y="465.82px" style="font-family:'Consolas', monospace;font-size:62.109px;fill:#fff;">C<tspan x="139.752px 177.024px 214.296px 251.567px 288.839px 326.111px " y="465.82px 465.82px 465.82px 465.82px 465.82px 465.82px ">ontact</tspan></text><text x="179.486px" y="630.41px" style="font-family:'Consolas', monospace;font-size:37.266px;fill:#fff;">l</text><text x="201.849px" y="630.41px" style="font-family:'Consolas', monospace;font-size:37.266px;fill:#fff;">i</text><text x="224.212px" y="630.41px" style="font-family:'Consolas', monospace;font-size:37.266px;fill:#fff;">n</text><text x="246.575px" y="630.41px" style="font-family:'Consolas', monospace;font-size:37.266px;fill:#fff;">k</text><text x="268.938px" y="630.41px" style="font-family:'Consolas', monospace;font-size:37.266px;fill:#fff;">e</text><text x="291.301px" y="630.41px" style="font-family:'Consolas', monospace;font-size:37.266px;fill:#fff;">d</text><text x="313.664px" y="630.41px" style="font-family:'Consolas', monospace;font-size:37.266px;fill:#fff;">i</text><text x="336.027px" y="630.41px" style="font-family:'Consolas', monospace;font-size:37.266px;fill:#fff;">n</text><text x="358.39px" y="630.41px" style="font-family:'Consolas', monospace;font-size:37.266px;fill:#fff;">.</text><text x="380.753px" y="630.41px" style="font-family:'Consolas', monospace;font-size:37.266px;fill:#fff;">c</text><text x="403.116px" y="630.41px" style="font-family:'Consolas', monospace;font-size:37.266px;fill:#fff;">o</text><text x="425.479px" y="630.41px" style="font-family:'Consolas', monospace;font-size:37.266px;fill:#fff;">m</text><text x="447.843px" y="630.41px" style="font-family:'Consolas', monospace;font-size:37.266px;fill:#fff;">/</text><text x="470.206px" y="630.41px" style="font-family:'Consolas', monospace;font-size:37.266px;fill:#fff;">i</text><text x="492.569px" y="630.41px" style="font-family:'Consolas', monospace;font-size:37.266px;fill:#fff;">n</text><text x="514.932px" y="630.41px" style="font-family:'Consolas', monospace;font-size:37.266px;fill:#fff;">/</text><text x="537.295px" y="630.41px" style="font-family:'Consolas', monospace;font-size:37.266px;fill:#fff;">t</text><text x="559.658px" y="630.41px" style="font-family:'Consolas', monospace;font-size:37.266px;fill:#fff;">v</text><text x="582.021px" y="630.41px" style="font-family:'Consolas', monospace;font-size:37.266px;fill:#fff;">h</text><text x="604.384px" y="630.41px" style="font-family:'Consolas', monospace;font-size:37.266px;fill:#fff;">q</text><text x="626.747px" y="630.41px" style="font-family:'Consolas', monospace;font-size:37.266px;fill:#fff;">-</text><g transform="matrix(4.16667,0,0,4.16667,0,0)"><text x="43.077px" y="163.223px" style="font-family:'Consolas', monospace;font-size:8.944px;fill:#fff;">c<tspan x="48.444px 53.811px 59.178px 64.545px 69.912px 75.279px 80.647px " y="163.223px 163.223px 163.223px 163.223px 163.223px 163.223px 163.223px ">onnect/</tspan></text><text x="43.973px" y="188.567px" style="font-family:'Consolas', monospace;font-size:8.944px;fill:#fff;">t<tspan x="49.341px 54.708px 60.075px 65.442px 70.809px 76.176px 81.543px 86.91px 92.278px 97.645px 103.012px 108.379px 113.746px 119.113px 124.48px " y="188.567px 188.567px 188.567px 188.567px 188.567px 188.567px 188.567px 188.567px 188.567px 188.567px 188.567px 188.567px 188.567px 188.567px 188.567px ">vhq.vercel.app/</tspan></text></g><g transform="matrix(4.16667,0,0,4.16667,0,0)"><text x="24.595px" y="359.241px" style="font-family:'Consolas', monospace;font-size:14.906px;fill:#fff;">L<tspan x="33.541px 42.486px 51.431px 60.376px 69.321px 78.267px 87.212px 96.157px " y="359.241px 359.241px 359.241px 359.241px 359.241px 359.241px 359.241px 359.241px ">anguages</tspan></text><text x="24.595px" y="402.466px" style="font-family:'Consolas', monospace;font-size:11.925px;fill:#fff;">C<tspan x="31.751px 38.908px 46.064px 53.22px " y="402.466px 402.466px 402.466px 402.466px ">zech</tspan></text><text x="24.595px" y="433.021px" style="font-family:'Consolas', monospace;font-size:11.925px;fill:#fff;">V<tspan x="31.751px 38.908px 46.064px 53.22px 60.376px 67.532px 74.688px 81.845px 89.001px " y="433.021px 433.021px 433.021px 433.021px 433.021px 433.021px 433.021px 433.021px 433.021px ">ietnamese</tspan></text><text x="24.595px" y="463.576px" style="font-family:'Consolas', monospace;font-size:11.925px;fill:#fff;">E<tspan x="31.751px 38.908px 46.064px 53.22px 60.376px 67.532px " y="463.576px 463.576px 463.576px 463.576px 463.576px 463.576px ">nglish</tspan></text><text x="24.595px" y="494.131px" style="font-family:'Consolas', monospace;font-size:11.925px;fill:#fff;">G<tspan x="31.751px 38.908px 46.064px 53.22px 60.376px " y="494.131px 494.131px 494.131px 494.131px 494.131px ">erman</tspan></text></g><g transform="matrix(4.16667,0,0,4.16667,0,0)"><text x="233.283px" y="111.797px" style="font-family:'Consolas', monospace;font-size:14.906px;">W<tspan x="242.17px 251.058px 259.945px " y="111.797px 111.797px 111.797px ">ork</tspan></text><text x="278.009px" y="111.797px" style="font-family:'Consolas', monospace;font-size:14.906px;">e<tspan x="286.896px 295.784px 304.671px 313.559px 322.446px 331.334px 340.222px 349.109px 357.997px " y="111.797px 111.797px 111.797px 111.797px 111.797px 111.797px 111.797px 111.797px 111.797px ">xperience</tspan></text></g><g transform="matrix(4.16667,0,0,4.16667,0,0)"><text x="248.189px" y="155.025px" style="font-family:'Consolas', monospace;font-size:11.925px;">K<tspan x="255.265px 262.341px 269.418px 276.494px 283.57px 290.646px 297.722px 304.799px 311.875px 319.751px 326.827px 333.904px 340.98px 348.056px 355.132px " y="155.025px 155.025px 155.025px 155.025px 155.025px 155.025px 155.025px 155.025px 155.025px 155.025px 155.025px 155.025px 155.025px 155.025px 155.025px ">-System, s.r.o.</tspan></text><text x="370.085px" y="155.025px" style="font-family:'Consolas', monospace;font-size:10.434px;fill:#525252;">Ž</text></g><g transform="matrix(4.16667,0,0,4.16667,0,0)"><text x="376.111px" y="155.025px" style="font-family:'Consolas', monospace;font-size:10.434px;fill:#525252;">i<tspan x="382.28px 388.449px 394.618px 401.505px 407.674px 413.843px " y="155.025px 155.025px 155.025px 155.025px 155.025px 155.025px ">ar nad</tspan></text><text x="426.204px" y="155.025px" style="font-family:'Consolas', monospace;font-size:10.434px;fill:#525252;">H<tspan x="432.373px 438.543px 444.712px 450.881px 457.05px 463.219px 470.106px 476.275px 482.444px 488.613px 494.782px 500.951px " y="155.025px 155.025px 155.025px 155.025px 155.025px 155.025px 155.025px 155.025px 155.025px 155.025px 155.025px 155.025px ">ronom (2019)</tspan></text><text x="248.189px" y="173.659px" style="font-family:'Consolas', monospace;font-size:10.434px;">S<tspan x="254.392px 260.596px 266.799px 273.689px 279.892px 286.095px 292.299px 298.502px 304.705px 310.909px 317.112px 323.315px " y="173.659px 173.659px 173.659px 173.659px 173.659px 173.659px 173.659px 173.659px 173.659px 173.659px 173.659px 173.659px ">QL Developer</tspan></text><text x="335.852px" y="173.659px" style="font-family:'Consolas', monospace;font-size:10.434px;">(<tspan x="342.055px 348.259px 354.462px 360.665px 366.869px 373.072px 379.275px 385.479px 391.682px 397.885px 404.089px 410.978px 417.182px 423.385px 429.588px 435.792px 441.995px 448.198px 455.088px 461.291px 467.495px 473.698px 479.901px 486.105px 492.308px 498.511px " y="173.659px 173.659px 173.659px 173.659px 173.659px 173.659px 173.659px 173.659px 173.659px 173.659px 173.659px 173.659px 173.659px 173.659px 173.659px 173.659px 173.659px 173.659px 173.659px 173.659px 173.659px 173.659px 173.659px 173.659px 173.659px 173.659px ">Internship within studies)</tspan></text><text x="260.114px" y="191.544px" style="font-family:'Consolas', monospace;font-size:10.434px;">M<tspan x="266.301px 272.487px 278.674px 284.861px 291.047px 297.234px 303.421px 309.607px 315.794px 321.981px 328.167px 335.056px 341.243px 347.429px 354.318px 360.504px 366.691px 372.878px 379.064px 385.251px 391.438px 398.326px 404.513px 410.7px 416.886px 423.073px 429.26px 435.446px 441.633px 447.82px 454.006px 460.193px 467.081px 473.268px 479.455px 485.642px 491.828px 498.015px " y="191.544px 191.544px 191.544px 191.544px 191.544px 191.544px 191.544px 191.544px 191.544px 191.544px 191.544px 191.544px 191.544px 191.544px 191.544px 191.544px 191.544px 191.544px 191.544px 191.544px 191.544px 191.544px 191.544px 191.544px 191.544px 191.544px 191.544px 191.544px 191.544px 191.544px 191.544px 191.544px 191.544px 191.544px 191.544px 191.544px 191.544px 191.544px ">aintenance of Cantor production system</tspan></text><text x="510.58px" y="191.544px" style="font-family:'Consolas', monospace;font-size:10.434px;">-</text><text x="260.114px" y="206.448px" style="font-family:'Consolas', monospace;font-size:10.434px;">s<tspan x="266.325px 272.536px 278.747px 284.957px 291.168px 297.379px 303.59px 309.801px 316.691px 322.902px 329.113px 335.324px 341.534px 347.745px 353.956px 360.167px 366.378px 372.589px 379.479px 385.69px 391.901px 398.111px 404.322px 410.533px " y="206.448px 206.448px 206.448px 206.448px 206.448px 206.448px 206.448px 206.448px 206.448px 206.448px 206.448px 206.448px 206.448px 206.448px 206.448px 206.448px 206.448px 206.448px 206.448px 206.448px 206.448px 206.448px 206.448px 206.448px ">oftware solution, German</tspan></text><text x="422.917px" y="206.448px" style="font-family:'Consolas', monospace;font-size:10.434px;">s<tspan x="429.128px 435.338px 441.549px 447.76px 453.971px 460.182px 466.393px 472.604px " y="206.448px 206.448px 206.448px 206.448px 206.448px 206.448px 206.448px 206.448px ">upplier.</tspan></text><text x="260.114px" y="221.352px" style="font-family:'Consolas', monospace;font-size:10.434px;">U<tspan x="266.292px 272.469px 278.647px 285.535px 291.713px " y="221.352px 221.352px 221.352px 221.352px 221.352px ">se of</tspan></text><text x="303.946px" y="221.352px" style="font-family:'Consolas', monospace;font-size:10.434px;">G<tspan x="310.123px 316.301px 322.479px 328.656px 334.834px 341.012px 347.899px 354.077px 360.255px 366.432px 372.61px 378.788px 384.965px 391.143px 397.321px 404.209px 410.386px 416.564px 422.742px 428.919px 435.097px 441.275px " y="221.352px 221.352px 221.352px 221.352px 221.352px 221.352px 221.352px 221.352px 221.352px 221.352px 221.352px 221.352px 221.352px 221.352px 221.352px 221.352px 221.352px 221.352px 221.352px 221.352px 221.352px 221.352px ">erman language skills.</tspan></text><text x="248.189px" y="244.457px" style="font-family:'Consolas', monospace;font-size:11.925px;">R<tspan x="255.247px 262.306px 269.364px 276.422px 283.481px 290.539px 298.415px 305.473px " y="244.457px 244.457px 244.457px 244.457px 244.457px 244.457px 244.457px 244.457px ">ehtek IT</tspan></text><text x="319.762px" y="244.457px" style="font-family:'Consolas', monospace;font-size:10.434px;fill:#525252;">B<tspan x="325.938px 332.114px 338.29px 344.466px 350.643px 356.819px 363.71px 369.886px 376.062px 382.238px 388.414px 394.59px " y="244.457px 244.457px 244.457px 244.457px 244.457px 244.457px 244.457px 244.457px 244.457px 244.457px 244.457px 244.457px ">erlin (2016)</tspan></text><text x="248.189px" y="263.092px" style="font-family:'Consolas', monospace;font-size:10.434px;">W<tspan x="254.392px 260.596px 266.799px 273.689px 279.892px 286.095px 292.299px 298.502px 304.705px 310.909px 317.112px 323.315px " y="263.092px 263.092px 263.092px 263.092px 263.092px 263.092px 263.092px 263.092px 263.092px 263.092px 263.092px 263.092px ">eb Developer</tspan></text><text x="335.852px" y="263.092px" style="font-family:'Consolas', monospace;font-size:10.434px;">(<tspan x="342.055px 348.259px 354.462px 360.665px 366.869px 373.072px 379.275px 385.479px 391.682px 397.885px 404.089px 410.978px 417.182px 423.385px 429.588px 435.792px 441.995px 448.198px 455.088px 461.291px 467.495px 473.698px 479.901px 486.105px 492.308px 498.511px " y="263.092px 263.092px 263.092px 263.092px 263.092px 263.092px 263.092px 263.092px 263.092px 263.092px 263.092px 263.092px 263.092px 263.092px 263.092px 263.092px 263.092px 263.092px 263.092px 263.092px 263.092px 263.092px 263.092px 263.092px 263.092px 263.092px ">Internship within studies)</tspan></text><text x="260.114px" y="280.976px" style="font-family:'Consolas', monospace;font-size:10.434px;">W<tspan x="266.347px 272.579px 278.811px 285.044px 291.276px 297.509px 303.741px 310.633px 316.865px 323.098px 329.33px 335.563px 341.795px 348.028px 354.26px 360.493px 366.725px 372.958px 379.19px " y="280.976px 280.976px 280.976px 280.976px 280.976px 280.976px 280.976px 280.976px 280.976px 280.976px 280.976px 280.976px 280.976px 280.976px 280.976px 280.976px 280.976px 280.976px 280.976px ">ebsite development.</tspan></text><text x="260.114px" y="295.881px" style="font-family:'Consolas', monospace;font-size:10.434px;">D<tspan x="266.328px 272.542px 278.756px 284.97px 291.184px 297.398px 303.612px 309.826px 316.039px 322.93px 329.144px 335.358px 341.572px 347.785px 353.999px 360.213px 366.427px 372.641px 378.855px 385.069px 391.959px 398.173px 404.387px 410.601px 416.815px 423.029px 429.243px " y="295.881px 295.881px 295.881px 295.881px 295.881px 295.881px 295.881px 295.881px 295.881px 295.881px 295.881px 295.881px 295.881px 295.881px 295.881px 295.881px 295.881px 295.881px 295.881px 295.881px 295.881px 295.881px 295.881px 295.881px 295.881px 295.881px 295.881px ">esigning responsive website</tspan></text><text x="441.702px" y="295.881px" style="font-family:'Consolas', monospace;font-size:10.434px;">l<tspan x="447.916px 454.13px 460.343px 466.557px 472.771px 478.985px 485.199px " y="295.881px 295.881px 295.881px 295.881px 295.881px 295.881px 295.881px ">ayouts.</tspan></text></g><text x="972.012px" y="1496.84px" style="font-family:'Consolas', monospace;font-size:62.109px;">E<tspan x="1009.28px 1046.56px 1083.83px 1121.1px 1158.37px 1195.64px 1232.91px 1270.18px " y="1496.84px 1496.84px 1496.84px 1496.84px 1496.84px 1496.84px 1496.84px 1496.84px ">ducation</tspan></text><g transform="matrix(4.16667,0,0,4.16667,0,0)"><text x="248.189px" y="402.469px" style="font-family:'Consolas', monospace;font-size:11.925px;">U<tspan x="255.289px 262.389px 269.489px 276.589px 283.689px 290.789px 297.889px 305.767px 312.867px 319.967px 327.067px 334.167px 341.268px 348.368px 355.468px 362.568px 369.668px " y="402.469px 402.469px 402.469px 402.469px 402.469px 402.469px 402.469px 402.469px 402.469px 402.469px 402.469px 402.469px 402.469px 402.469px 402.469px 402.469px 402.469px ">nicorn University</tspan></text><text x="384.646px" y="402.469px" style="font-family:'Consolas', monospace;font-size:10.434px;fill:#525252;">P<tspan x="390.858px 397.071px 403.283px 409.496px 415.708px " y="402.469px 402.469px 402.469px 402.469px 402.469px ">rague</tspan></text><text x="248.189px" y="421.103px" style="font-family:'Consolas', monospace;font-size:10.434px;">B<tspan x="254.394px 260.599px 266.804px 273.009px 279.214px 285.418px 291.623px 297.828px 304.033px 310.238px 317.128px 323.333px 329.538px 335.743px 341.948px 348.152px 354.357px 361.247px " y="421.103px 421.103px 421.103px 421.103px 421.103px 421.103px 421.103px 421.103px 421.103px 421.103px 421.103px 421.103px 421.103px 421.103px 421.103px 421.103px 421.103px 421.103px ">achelor&apos;s Degree -</tspan></text><text x="373.422px" y="421.103px" style="font-family:'Consolas', monospace;font-size:10.434px;">I<tspan x="379.627px 385.832px 392.037px 398.242px 404.446px 410.651px 416.856px 423.061px 429.266px 435.471px 441.676px 448.566px 454.771px 460.975px 467.18px 473.385px 479.59px 485.795px 492px 498.205px 504.41px " y="421.103px 421.103px 421.103px 421.103px 421.103px 421.103px 421.103px 421.103px 421.103px 421.103px 421.103px 421.103px 421.103px 421.103px 421.103px 421.103px 421.103px 421.103px 421.103px 421.103px 421.103px ">nformation Technology</tspan></text><text x="248.189px" y="447.188px" style="font-family:'Consolas', monospace;font-size:11.925px;">G<tspan x="255.286px 262.383px 269.48px 276.577px 283.674px 290.771px 297.868px 304.964px 312.061px 319.939px 327.036px 334.133px 341.23px 348.327px 355.424px " y="447.188px 447.188px 447.188px 447.188px 447.188px 447.188px 447.188px 447.188px 447.188px 447.188px 447.188px 447.188px 447.188px 447.188px 447.188px ">ymnázium F.X.Š.</tspan></text><text x="369.85px" y="447.188px" style="font-family:'Consolas', monospace;font-size:10.434px;fill:#525252;">L<tspan x="376.059px 382.269px 388.479px 394.689px 400.899px 407.109px " y="447.188px 447.188px 447.188px 447.188px 447.188px 447.188px ">iberec</tspan></text><text x="248.189px" y="465.822px" style="font-family:'Consolas', monospace;font-size:10.434px;">S<tspan x="254.336px 260.483px 266.63px 272.776px 278.923px 285.07px 291.217px 297.364px 303.511px 310.396px 316.542px 322.689px 328.836px 334.983px 341.13px 347.277px 353.423px 359.57px " y="465.822px 465.822px 465.822px 465.822px 465.822px 465.822px 465.822px 465.822px 465.822px 465.822px 465.822px 465.822px 465.822px 465.822px 465.822px 465.822px 465.822px 465.822px ">econdary education</tspan></text><text x="373.422px" y="465.822px" style="font-family:'Consolas', monospace;font-size:10.434px;">-</text><text x="385.945px" y="465.822px" style="font-family:'Consolas', monospace;font-size:10.434px;">d<tspan x="392.092px 398.239px 404.386px 410.533px 417.417px 423.564px 429.711px 435.858px 442.005px 448.152px 455.037px 461.183px " y="465.822px 465.822px 465.822px 465.822px 465.822px 465.822px 465.822px 465.822px 465.822px 465.822px 465.822px 465.822px ">ual study CZ</tspan></text><text x="473.608px" y="465.822px" style="font-family:'Consolas', monospace;font-size:10.434px;">/</text><text x="486.131px" y="465.822px" style="font-family:'Consolas', monospace;font-size:10.434px;">D<tspan x="492.278px " y="465.822px ">E</tspan></text><text x="233.283px" y="512.779px" style="font-family:'Consolas', monospace;font-size:14.906px;">S<tspan x="242.228px 251.173px 260.118px 269.064px 278.009px " y="512.779px 512.779px 512.779px 512.779px 512.779px ">kills</tspan></text><text x="233.283px" y="550.044px" style="font-family:'Consolas', monospace;font-size:11.925px;">H<tspan x="240.439px 247.595px 254.751px 261.907px " y="550.044px 550.044px 550.044px 550.044px ">TML5</tspan></text></g><text x="1344.67px" y="2291.84px" style="font-family:'Consolas', monospace;font-size:49.687px;">C<tspan x="1374.49px 1404.3px 1434.12px " y="2291.84px 2291.84px 2291.84px ">SS3</tspan></text><text x="1717.32px" y="2291.84px" style="font-family:'Consolas', monospace;font-size:49.687px;">T<tspan x="1746.89px 1776.46px 1806.03px 1835.59px 1865.16px 1894.73px 1924.3px 1953.86px 1986.67px 2016.24px 2045.81px " y="2291.84px 2291.84px 2291.84px 2291.84px 2291.84px 2291.84px 2291.84px 2291.84px 2291.84px 2291.84px 2291.84px ">ailwind CSS</tspan></text><g transform="matrix(4.16667,0,0,4.16667,0,0)"><text x="233.283px" y="586.561px" style="font-family:'Consolas', monospace;font-size:11.925px;">T<tspan x="240.393px 247.503px 254.613px 261.723px 268.833px 275.943px 283.053px 290.163px 297.273px 304.383px 322.72px 329.83px 336.94px 344.05px " y="586.561px 586.561px 586.561px 586.561px 586.561px 586.561px 586.561px 586.561px 586.561px 586.561px 586.561px 586.561px 586.561px 586.561px ">ypeScript	Java</tspan></text><text x="233.283px" y="623.086px" style="font-family:'Consolas', monospace;font-size:11.925px;">A<tspan x="240.439px 247.595px 254.751px 261.907px 269.064px 276.22px " y="623.086px 623.086px 623.086px 623.086px 623.086px 623.086px ">ngular</tspan></text></g><text x="1344.67px" y="2596.17px" style="font-family:'Consolas', monospace;font-size:49.687px;">S<tspan x="1374.49px 1404.3px 1434.12px 1463.94px 1493.76px 1523.57px 1553.39px 1583.21px " y="2596.17px 2596.17px 2596.17px 2596.17px 2596.17px 2596.17px 2596.17px 2596.17px ">velteKit</tspan></text><g transform="matrix(4.16667,0,0,4.16667,0,0)"><text x="233.283px" y="677.489px" style="font-family:'Consolas', monospace;font-size:11.925px;">O<tspan x="240.361px 247.439px 254.517px 261.595px 268.672px 276.546px 283.623px 290.701px 297.779px 304.857px 311.935px 319.013px 326.091px 333.169px 340.247px 347.325px 354.403px 361.481px 369.354px " y="677.489px 677.489px 677.489px 677.489px 677.489px 677.489px 677.489px 677.489px 677.489px 677.489px 677.489px 677.489px 677.489px 677.489px 677.489px 677.489px 677.489px 677.489px 677.489px ">ther technologies &amp;</tspan></text><text x="383.562px" y="677.489px" style="font-family:'Consolas', monospace;font-size:11.925px;">t<tspan x="390.64px 397.718px 404.796px 411.874px 418.952px " y="677.489px 677.489px 677.489px 677.489px 677.489px ">ools:</tspan></text><text x="233.283px" y="704.324px" style="font-family:'Consolas', monospace;font-size:11.925px;">F<tspan x="240.439px 247.595px 254.751px 261.907px 269.064px 276.22px 283.376px 290.532px " y="704.324px 704.324px 704.324px 704.324px 704.324px 704.324px 704.324px 704.324px ">ront-end</tspan></text><text x="233.283px" y="722.209px" style="font-family:'Consolas', monospace;font-size:11.925px;">R<tspan x="240.382px 247.481px 254.58px 261.679px 268.778px 275.877px 283.752px 290.851px 297.95px 305.049px 312.148px 319.247px 326.346px 333.445px " y="722.209px 722.209px 722.209px 722.209px 722.209px 722.209px 722.209px 722.209px 722.209px 722.209px 722.209px 722.209px 722.209px 722.209px ">eact, Next.js,</tspan></text><text x="347.781px" y="722.209px" style="font-family:'Consolas', monospace;font-size:11.925px;">S<tspan x="354.88px 361.979px 369.079px 376.178px 383.277px 390.376px 397.475px " y="722.209px 722.209px 722.209px 722.209px 722.209px 722.209px 722.209px ">olid.js</tspan></text><text x="233.283px" y="746.054px" style="font-family:'Consolas', monospace;font-size:11.925px;">B<tspan x="240.439px 247.595px 254.751px 261.907px 269.064px 276.22px 283.376px " y="746.054px 746.054px 746.054px 746.054px 746.054px 746.054px 746.054px ">ack-end</tspan></text><text x="233.283px" y="763.939px" style="font-family:'Consolas', monospace;font-size:11.925px;">N<tspan x="240.367px 247.451px 254.535px 261.62px 268.704px 275.788px 282.872px 289.956px 297.83px 304.914px 311.998px 319.082px 326.167px 333.251px 340.335px 347.419px 354.503px 362.377px 369.461px 376.545px 383.63px 390.714px 397.798px " y="763.939px 763.939px 763.939px 763.939px 763.939px 763.939px 763.939px 763.939px 763.939px 763.939px 763.939px 763.939px 763.939px 763.939px 763.939px 763.939px 763.939px 763.939px 763.939px 763.939px 763.939px 763.939px 763.939px ">ode.js, Nest.js, Spring</tspan></text><text x="412.187px" y="763.939px" style="font-family:'Consolas', monospace;font-size:11.925px;">B<tspan x="419.271px 426.355px 433.439px " y="763.939px 763.939px 763.939px ">oot</tspan></text><text x="233.283px" y="787.784px" style="font-family:'Consolas', monospace;font-size:11.925px;">C<tspan x="240.439px 247.595px 254.751px 261.907px 269.064px 276.22px 283.376px 290.532px 297.688px 304.844px 312.001px 319.157px 326.313px " y="787.784px 787.784px 787.784px 787.784px 787.784px 787.784px 787.784px 787.784px 787.784px 787.784px 787.784px 787.784px 787.784px ">ross-platform</tspan></text><text x="233.283px" y="805.669px" style="font-family:'Consolas', monospace;font-size:11.925px;">F<tspan x="240.368px 247.454px 254.54px 261.625px 268.711px 275.796px 282.882px 289.968px 297.841px 304.927px 312.012px 319.098px 326.184px " y="805.669px 805.669px 805.669px 805.669px 805.669px 805.669px 805.669px 805.669px 805.669px 805.669px 805.669px 805.669px 805.669px ">lutter, React</tspan></text><text x="340.625px" y="805.669px" style="font-family:'Consolas', monospace;font-size:11.925px;">N<tspan x="347.711px 354.796px 361.882px 368.968px 376.053px 383.139px 390.224px 398.098px 405.184px 412.269px 419.355px 426.441px 433.526px " y="805.669px 805.669px 805.669px 805.669px 805.669px 805.669px 805.669px 805.669px 805.669px 805.669px 805.669px 805.669px 805.669px ">ative, Ionic,</tspan></text><text x="447.968px" y="805.669px" style="font-family:'Consolas', monospace;font-size:11.925px;">C<tspan x="455.053px 462.139px 469.225px 476.31px 483.396px 490.481px 497.567px 504.653px " y="805.669px 805.669px 805.669px 805.669px 805.669px 805.669px 805.669px 805.669px ">apacitor</tspan></text></g><g transform="matrix(4.16667,0,0,4.16667,0,0)"><text x="233.283px" y="42.483px" style="font-family:'Consolas', monospace;font-size:17.887px;">T<tspan x="243.837px 254.391px 264.946px 275.5px 287.304px 297.859px " y="42.483px 42.483px 42.483px 42.483px 42.483px 42.483px ">uan Vu</tspan></text><text x="233.283px" y="66.33px" style="font-family:'Consolas', monospace;font-size:17.887px;">H<tspan x="243.917px 254.551px 265.186px 275.82px " y="66.33px 66.33px 66.33px 66.33px ">oang</tspan></text><text x="297.688px" y="66.33px" style="font-family:'Consolas', monospace;font-size:17.887px;">Q<tspan x="308.323px 318.957px 329.591px 340.225px " y="66.33px 66.33px 66.33px 66.33px ">uang</tspan></text></g><rect x="1747.26" y="2825.98" width="29.842" height="3.105"/></g></g></svg>